PathFileType	4	(X/Y/Z)	../motion_lab\static\static_01\task.trc
DataRate	CameraRate	NumFrames	NumMarkers	Units	OrigDataRate	OrigDataStartFrame	OrigNumFrames
200.000000	200.000000	4	73	mm	200.000000	259	693
Frame#	Time	Athlete_3:GLAB			Athlete_3:RFHD			Athlete_3:LFHD			Athlete_3:C7			Athlete_3:T6			Athlete_3:SPINMOL			Athlete_3:SPINM2			Athlete_3:SPINM3			Athlete_3:T12			Athlete_3:BELTOL			Athlete_3:BELT2			Athlete_3:BELT3			Athlete_3:SACROL			Athlete_3:SACR2			Athlete_3:SACR3			Athlete_3:LASI			Athlete_3:RASI			Athlete_3:LPSI			Athlete_3:RPSI			Athlete_3:LTHOL			Athlete_3:LTH2			Athlete_3:LTH3			Athlete_3:LKNEL			Athlete_3:LKNEM			Athlete_3:LFIB			Athlete_3:LSHAOL			Athlete_3:LSHA2			Athlete_3:LSHA3			Athlete_3:LMALL			Athlete_3:LMALM			Athlete_3:LHEE			Athlete_3:LTOE			Athlete_3:LM5			Athlete_3:RTHOL			Athlete_3:RTH2			Athlete_3:RTH3			Athlete_3:RKNEL			Athlete_3:RKNEM			Athlete_3:RFIB			Athlete_3:RSHAOL			Athlete_3:RSHA2			Athlete_3:RSHA3			Athlete_3:RMALL			Athlete_3:RMALM			Athlete_3:RHEE			Athlete_3:RTOE			Athlete_3:RM5			Athlete_3:STRN			Athlete_3:XIPH			Athlete_3:LACR			Athlete_3:LUAOL			Athlete_3:LUA2			Athlete_3:LUA3			Athlete_3:LCUBL			Athlete_3:LCUBM			Athlete_3:LLAOL			Athlete_3:LLA2			Athlete_3:LLA3			Athlete_3:LWRR			Athlete_3:LWRU			Athlete_3:RACR			Athlete_3:RUAOL			Athlete_3:RUA2			Athlete_3:RUA3			Athlete_3:RCUBL			Athlete_3:RCUBM			Athlete_3:RLAOL			Athlete_3:RLA2			Athlete_3:RLA3			Athlete_3:RWRR			Athlete_3:RWRU			Bar:BL			Bar:BR			
		X1	Y1	Z1	X2	Y2	Z2	X3	Y3	Z3	X4	Y4	Z4	X5	Y5	Z5	X6	Y6	Z6	X7	Y7	Z7	X8	Y8	Z8	X9	Y9	Z9	X10	Y10	Z10	X11	Y11	Z11	X12	Y12	Z12	X13	Y13	Z13	X14	Y14	Z14	X15	Y15	Z15	X16	Y16	Z16	X17	Y17	Z17	X18	Y18	Z18	X19	Y19	Z19	X20	Y20	Z20	X21	Y21	Z21	X22	Y22	Z22	X23	Y23	Z23	X24	Y24	Z24	X25	Y25	Z25	X26	Y26	Z26	X27	Y27	Z27	X28	Y28	Z28	X29	Y29	Z29	X30	Y30	Z30	X31	Y31	Z31	X32	Y32	Z32	X33	Y33	Z33	X34	Y34	Z34	X35	Y35	Z35	X36	Y36	Z36	X37	Y37	Z37	X38	Y38	Z38	X39	Y39	Z39	X40	Y40	Z40	X41	Y41	Z41	X42	Y42	Z42	X43	Y43	Z43	X44	Y44	Z44	X45	Y45	Z45	X46	Y46	Z46	X47	Y47	Z47	X48	Y48	Z48	X49	Y49	Z49	X50	Y50	Z50	X51	Y51	Z51	X52	Y52	Z52	X53	Y53	Z53	X54	Y54	Z54	X55	Y55	Z55	X56	Y56	Z56	X57	Y57	Z57	X58	Y58	Z58	X59	Y59	Z59	X60	Y60	Z60	X61	Y61	Z61	X62	Y62	Z62	X63	Y63	Z63	X64	Y64	Z64	X65	Y65	Z65	X66	Y66	Z66	X67	Y67	Z67	X68	Y68	Z68	X69	Y69	Z69	X70	Y70	Z70	X71	Y71	Z71	X72	Y72	Z72	X73	Y73	Z73	

260	1.295	1216.12841796875	1572.622314453126	359.7854919433595	1139.426147460938	1587.899169921876	301.3170776367189	1291.557861328125	1588.110473632813	296.5534973144532	1211.994750976563	1449.208251953125	134.6930694580079	1226.563354492188	1244.492553710938	79.58670043945315	1230.81787109375	1212.198974609375	75.26467895507815	1178.914794921875	1151.326293945313	70.21791839599612	1227.804931640625	1150.404418945313	79.56513214111331	1226.5986328125	1109.579956054688	92.72727966308597	1225.882690429688	1087.155395507813	69.3217697143555	1172.778076171875	1027.540405273438	70.59510040283206	1222.383666992188	1025.388916015625	62.94008255004886	1247.795654296875	975.9697875976567	73.66753387451175	1197.996459960938	985.4169921875005	80.81668090820315	1209.207153320313	927.491088867188	50.09133529663089	1336.562133789063	942.3744506835942	289.472869873047	1109.030151367188	941.9431152343755	293.6301269531251	1259.531982421875	991.8338012695317	85.40352630615237	1170.4423828125	990.504516601563	86.16532897949222	1443.668579101563	737.596862792969	202.8845367431642	1426.605102539063	677.1403808593752	153.5360107421876	1441.216430664063	675.777526855469	201.896209716797	1427.060791015625	497.9654846191409	192.7279052734376	1283.032104492188	466.1149902343752	216.3601379394532	1428.088256835938	442.4031066894534	152.445541381836	1449.764770507813	326.4578552246095	144.9531860351563	1444.440185546875	260.3773498535157	101.8092575073243	1450.060913085938	264.5285949707032	151.1224212646485	1434.112548828125	85.36732482910159	126.1842498779297	1350.475463867188	96.34840393066412	169.376205444336	1374.840209960938	38.95930862426759	78.42752075195315	1391.244873046875	47.31143951416017	289.6600952148439	1492.160400390625	32.10005187988283	238.5662536621095	1006.35693359375	708.2968750000002	176.0772399902344	992.6858520507817	635.993347167969	207.2586822509767	1009.595275878907	647.703796386719	161.5375061035157	1013.830383300782	496.8937683105471	161.2569427490235	1151.765869140625	461.5434570312502	209.1441497802736	1015.289611816407	442.5561828613284	117.1881713867188	998.348510742188	323.3416137695314	91.72227478027347	983.1574707031255	256.0723571777345	131.2912139892579	1002.285339355469	262.2561950683595	85.22338867187503	1016.814575195313	86.81205749511722	90.0992126464844	1084.280395507813	97.03168487548834	153.0997467041016	1077.66650390625	38.30541992187501	58.07534027099612	1022.258361816407	43.19378662109376	261.5975036621095	937.2070312500005	40.95775604248048	202.3571624755861	1224.7158203125	1365.779296875	283.5238647460939	1226.6259765625	1208.142211914063	320.3558349609376	1400.265014648438	1412.81884765625	144.6121826171876	1513.771728515625	1347.676025390625	131.8064880371094	1556.082519531251	1297.155151367188	122.2435836791993	1573.222656250001	1332.411254882813	156.4922180175782	1681.530273437501	1294.914306640625	167.7391052246094	1631.391479492188	1208.699096679688	190.1246337890626	1767.325683593751	1262.932250976563	196.5540466308595	1821.658813476563	1226.377563476563	201.9971618652345	1815.424316406251	1257.5947265625	240.6336669921876	1860.720947265626	1185.777954101563	309.8455505371095	1903.267944335938	1208.073974609375	252.588348388672	1041.480102539063	1402.297241210938	162.1307067871094	909.0106811523442	1335.387084960938	172.389877319336	866.0754394531255	1326.613403320313	222.652557373047	845.5968627929692	1315.544677734375	177.3486022949219	795.0586547851567	1288.965576171875	169.7590637207032	808.7766113281255	1195.102172851563	224.9665069580079	672.593200683594	1270.969116210938	227.523651123047	633.1138916015627	1259.117431640625	278.2852783203126	612.607849121094	1246.693603515625	233.3867187500001	580.180847167969	1178.74267578125	315.6579895019532	543.5322875976565	1211.41748046875	249.7823486328126	2307.396240234376	1285.455810546875	1512.077392578125	83.9717712402344	1283.402465820313	1540.637695312501	
261	1.3	1216.134887695313	1572.612426757813	359.7744750976564	1139.432495117188	1587.900146484376	301.3187866210939	1291.56201171875	1588.111938476563	296.5399475097657	1211.998901367188	1449.206176757813	134.6757507324219	1226.570678710938	1244.4931640625	79.58137512207034	1230.837524414063	1212.189697265625	75.27056121826175	1178.92529296875	1151.328247070313	70.210319519043	1227.817504882813	1150.400390625	79.53765106201175	1226.604736328125	1109.579345703125	92.72154235839847	1225.888549804688	1087.150634765625	69.31507873535159	1172.78564453125	1027.539916992188	70.59709167480472	1222.383422851563	1025.384887695313	62.93899917602542	1247.770751953125	975.954467773438	73.72334289550784	1198.023681640625	985.4084472656255	80.84992218017581	1209.211303710938	927.4927368164067	50.08086013793948	1336.559448242188	942.3750000000005	289.4794921875001	1109.029663085938	941.9485473632817	293.6289367675782	1259.534790039063	991.8355102539067	85.39939880371097	1170.446166992188	990.5061035156255	86.16722106933597	1443.6640625	737.601013183594	202.895721435547	1426.6025390625	677.150329589844	153.5475158691407	1441.302368164063	675.8296508789065	201.913543701172	1427.05517578125	497.9680480957034	192.7191772460939	1283.01611328125	466.1128234863284	216.3548889160157	1428.078125	442.403015136719	152.4448394775391	1449.756469726563	326.464569091797	144.9451446533204	1444.442138671875	260.3810424804689	101.8003234863282	1450.06396484375	264.5335388183595	151.1200256347657	1434.11474609375	85.3708190917969	126.1927337646485	1350.472412109375	96.34568786621099	169.3803405761719	1374.833374023438	38.96047592163087	78.44083404541018	1391.250732421875	47.30530929565431	289.6520385742189	1492.164428710938	32.09259033203126	238.5582275390626	1006.360290527344	708.295349121094	176.0717315673829	992.6801757812505	635.9995117187502	207.254119873047	1009.594482421875	647.719909667969	161.5357360839844	1013.831237792969	496.8952941894534	161.2610015869141	1151.766479492188	461.5533447265627	209.1585388183595	1015.290588378907	442.5574340820315	117.1874084472657	998.3729858398442	323.3349914550782	91.75711822509768	983.1580200195317	256.0769348144532	131.2931518554688	1002.278442382813	262.2612915039064	85.22670745849612	1016.815612792969	86.81449890136722	90.09726715087893	1084.283081054688	97.03240203857428	153.0916442871094	1077.66748046875	38.29484939575197	58.06716156005862	1022.25341796875	43.19313812255861	261.5977783203126	937.2088012695317	40.95476531982423	202.3604278564454	1224.716430664063	1365.780395507813	283.5112609863282	1226.641967773438	1208.14990234375	320.3472900390626	1400.271728515625	1412.823120117188	144.6103973388672	1513.781005859375	1347.683715820313	131.8138885498047	1556.084716796876	1297.153930664063	122.2355880737305	1573.227539062501	1332.407958984375	156.4994812011719	1681.539916992188	1294.911743164063	167.7274627685547	1631.534057617188	1208.79248046875	190.0830383300782	1767.338867187501	1262.918334960938	196.5493316650392	1821.663208007813	1226.37451171875	201.9903411865236	1815.437988281251	1257.59765625	240.6237030029298	1860.723022460938	1185.783569335938	309.8450317382814	1903.276977539063	1208.072143554688	252.5907135009767	1041.484008789063	1402.299438476563	162.1230773925782	909.071411132813	1335.415649414063	172.4082031250001	866.0854492187505	1326.595947265625	222.6618957519532	845.5997924804692	1315.541625976563	177.3420104980469	795.062622070313	1288.95556640625	169.7410278320313	808.7871093750005	1195.094604492188	224.9625244140626	672.6074218750002	1270.968017578125	227.5054168701173	633.1168212890627	1259.130493164063	278.2893676757814	612.6297607421877	1246.6865234375	233.3642730712892	580.1942138671877	1178.73974609375	315.665252685547	543.544128417969	1211.410034179688	249.7784423828126	2307.407714843751	1285.457641601563	1512.095458984375	83.96348571777347	1283.39208984375	1540.644897460938	
262	1.305	1216.13818359375	1572.606811523438	359.7612609863282	1139.435424804688	1587.898315429688	301.3124389648439	1291.565795898438	1588.111938476563	296.5267028808595	1212.00048828125	1449.203125	134.6651153564454	1226.581909179688	1244.502075195313	79.56778717041018	1230.857421875	1212.181640625	75.27140808105472	1178.941162109375	1151.322875976563	70.19797515869143	1227.83154296875	1150.39990234375	79.52856445312503	1226.604858398438	1109.5751953125	92.71121215820315	1225.890380859375	1087.14697265625	69.31242370605472	1172.78466796875	1027.534912109375	70.59793090820315	1222.388427734375	1025.379516601563	62.93338012695315	1247.795776367188	975.9629516601567	73.68780517578128	1198.026245117188	985.4126586914067	80.8179626464844	1209.226684570313	927.4951171875005	50.08533096313479	1336.558837890625	942.3779907226567	289.480926513672	1109.029174804688	941.9547729492192	293.627166748047	1259.531005859375	991.8275756835942	85.39542388916018	1170.445556640625	990.505004882813	86.15948486328128	1443.6455078125	737.5965576171877	202.8947143554689	1426.605102539063	677.1565551757815	153.5479278564454	1441.108276367188	675.7423095703127	201.9166107177736	1427.058715820313	497.9689636230471	192.7154083251954	1282.989868164063	466.1151123046877	216.3426055908204	1428.081787109375	442.4043273925784	152.4377593994141	1449.772094726563	326.477508544922	144.9360504150391	1444.43994140625	260.3811950683595	101.7919158935547	1450.064453125	264.5416564941407	151.1167297363282	1434.110473632813	85.36862945556643	126.1822357177735	1350.47802734375	96.34524536132818	169.3789520263672	1374.83984375	38.9606056213379	78.43565368652347	1391.247680664063	47.30043792724611	289.6488647460939	1492.164428710938	32.09072494506837	238.5507354736329	1006.3623046875	708.3013305664065	176.0680541992188	992.6735839843755	635.994812011719	207.2566833496095	1009.587890625	647.7168579101565	161.5313415527344	1013.822998046875	496.9002990722659	161.2570800781251	1151.764038085938	461.539978027344	209.1431427001954	1015.289855957032	442.5568542480471	117.1806335449219	998.3735961914067	323.3363342285157	91.75234985351565	983.148559570313	256.0672912597657	131.2813415527344	1002.281555175782	262.2593688964845	85.22531890869143	1016.811767578125	86.80960845947268	90.10125732421878	1084.279663085938	97.02867126464849	153.0946197509766	1077.66650390625	38.29072952270509	58.06563949584964	1022.244140625	43.19878005981447	261.5996398925782	937.2077026367192	40.9527053833008	202.3575744628907	1224.732543945313	1365.781616210938	283.4989624023439	1226.64697265625	1208.138061523438	320.3319702148439	1400.278686523438	1412.823364257813	144.6111297607422	1513.78271484375	1347.704345703125	131.8019409179688	1556.093383789063	1297.16552734375	122.2242050170899	1573.237426757813	1332.41455078125	156.505111694336	1681.539550781251	1294.90673828125	167.7190704345704	1631.541259765626	1208.788940429688	190.0610351562501	1767.326782226563	1262.918579101563	196.5249481201173	1821.669311523438	1226.371704101563	201.9841613769532	1815.436035156251	1257.59423828125	240.6139373779298	1860.727539062501	1185.788940429688	309.8481445312501	1903.275878906251	1208.07470703125	252.5866699218751	1041.4921875	1402.291259765625	162.1023864746094	909.050415039063	1335.367797851563	172.3667449951172	866.0945434570317	1326.583618164063	222.6609191894532	845.6077270507817	1315.530029296875	177.3324737548829	795.0795898437505	1288.953125	169.7408142089844	808.7951660156255	1195.092529296875	224.9641265869142	672.6256103515627	1270.94189453125	227.5217132568361	633.1741333007815	1259.017333984375	278.2968750000001	612.628601074219	1246.58984375	233.5326232910157	580.1953735351565	1178.740112304688	315.6624450683595	543.5605468750002	1211.405029296875	249.7821502685548	2307.397216796876	1285.452270507813	1512.082275390625	83.96392059326175	1283.401977539063	1540.647094726563	
263	1.31	1216.159423828125	1572.607299804688	359.7416076660157	1139.438598632813	1587.886108398438	301.3113403320314	1291.570068359375	1588.112304687501	296.5119628906251	1211.9990234375	1449.20458984375	134.6501922607422	1226.5986328125	1244.490966796875	79.5736999511719	1230.862060546875	1212.183349609375	75.25799560546878	1178.95703125	1151.321655273438	70.18296051025393	1227.841430664063	1150.3974609375	79.53919219970706	1226.62353515625	1109.5693359375	92.7079772949219	1225.898193359375	1087.142456054688	69.31072998046878	1172.787719726563	1027.533813476563	70.58879852294925	1222.389770507813	1025.375610351563	62.93082046508792	1247.79150390625	975.968383789063	73.72024536132815	1198.030151367188	985.3933715820317	80.83649444580081	1209.233032226563	927.472534179688	50.08944320678714	1336.56005859375	942.3693847656255	289.4744873046876	1109.030517578125	941.9575195312505	293.6245422363282	1259.535278320313	991.8198852539067	85.39373016357425	1170.444946289063	990.5065917968755	86.15608215332034	1443.640258789063	737.604187011719	202.8952636718751	1426.605834960938	677.1565551757815	153.5399169921876	1440.719848632813	675.6201171875002	201.8421630859376	1427.0556640625	497.9776000976565	192.7099456787111	1282.931396484375	466.1050109863284	216.3326568603517	1428.088500976563	442.4132385253909	152.4197540283204	1449.776245117188	326.4779663085939	144.924789428711	1444.439697265625	260.3802490234376	101.792221069336	1450.072143554688	264.5502319335939	151.1089172363282	1434.117065429688	85.37212371826175	126.1925888061524	1350.484130859375	96.34570312500006	169.3784484863282	1374.846313476563	38.96312332153322	78.41704559326175	1391.247924804688	47.3031349182129	289.6539306640626	1492.163696289063	32.08826828002931	238.5576019287111	1006.360534667969	708.304626464844	176.0702056884766	992.6773071289067	636.000183105469	207.2561187744142	1009.58154296875	647.7185058593752	161.5340118408204	1013.82470703125	496.8980407714846	161.2515869140626	1151.762451171875	461.551696777344	209.1583404541017	1015.291564941407	442.5542297363284	117.1831130981446	998.0703735351567	323.3546447753907	91.59983825683597	983.1472778320317	256.069793701172	131.2873840332032	1002.280395507813	262.2539978027345	85.22473144531253	1016.81494140625	86.81265258789065	90.10136413574222	1084.27734375	97.0345077514649	153.0881042480469	1077.676147460938	38.29592514038087	58.06838226318362	1022.255187988282	43.19357681274415	261.5953369140626	937.2099609375005	40.95520019531251	202.3606567382814	1224.731811523438	1365.778686523438	283.4822387695314	1226.65576171875	1208.138916015625	320.3283996582032	1400.271362304688	1412.78564453125	144.6571044921876	1513.803466796875	1347.705444335938	131.8047180175782	1556.090087890626	1297.190795898438	122.2242660522462	1573.241088867188	1332.409423828125	156.5019683837891	1681.544677734376	1294.902099609375	167.7056121826172	1631.541870117188	1208.784545898438	190.0476837158204	1767.231689453126	1262.898315429688	196.4686889648439	1821.675292968751	1226.371704101563	201.983612060547	1815.441406250001	1257.590576171875	240.6101074218751	1860.733764648438	1185.798828125	309.8470153808595	1903.278808593751	1208.07470703125	252.5831756591798	1041.502197265625	1402.291259765625	162.0907897949219	909.0522460937505	1335.361694335938	172.3290710449219	866.112426757813	1326.581420898438	222.6472320556642	845.615112304688	1315.517456054688	177.3253631591797	795.1005249023442	1288.94580078125	169.7362213134766	808.8127441406255	1195.082763671875	224.9584960937501	672.6128540039065	1270.952270507813	227.5155334472657	633.0472412109377	1258.929809570313	278.3865051269532	612.6448364257815	1246.58447265625	233.5256652832032	580.2152099609377	1178.73388671875	315.654266357422	543.5705566406252	1211.396728515625	249.7767333984376	2307.392822265626	1285.4482421875	1512.072143554688	83.96617126464847	1283.414184570313	1540.652221679688	
